<svg xmlns="http://www.w3.org/2000/svg" width="76" height="25" fill="none" style="color:#1A1A1B"><path fill="currentColor" d="M4.74 21.78q-2.2 0-3.48-.78Q0 20.22 0 18.84a2.8 2.8 0 0 1 .08-.62l2.76-1.72.62.7-1.26 1.54a.3.3 0 0 0-.02.1v.08q0 .56.7.86t1.86.3q.98 0 1.5-.26.52-.24.52-.72a.62.62 0 0 0-.14-.42q-.14-.16-.46-.26a6 6 0 0 0-.84-.18q-.5-.08-1.22-.18a9.2 9.2 0 0 1-1.8-.38q-.88-.26-1.46-.78-.58-.54-.58-1.42 0-.78.54-1.42.54-.66 1.42-1.08l1.2.96q-.54.08-.82.36a.94.94 0 0 0-.26.66q0 .32.26.52.26.18.74.28t1.14.18q1.02.14 1.88.3.88.16 1.52.46.66.28 1 .78.36.5.36 1.3 0 1.46-1.18 2.22-1.16.78-3.32.78m-.2-7.04q-1.24 0-2.18-.46A3.74 3.74 0 0 1 .92 13Q.4 12.18.4 11.12q0-1.1.54-1.92.56-.84 1.48-1.3a4.6 4.6 0 0 1 2.04-.46q1.08 0 2 .46a3.7 3.7 0 0 1 1.5 1.32q.58.84.58 1.98 0 1.08-.52 1.88-.5.78-1.4 1.22t-2.08.44m-.06-1.96q.8 0 1.18-.48.4-.5.4-1.2 0-.72-.42-1.16-.42-.46-1.16-.46t-1.18.46q-.42.46-.42 1.16t.4 1.2q.4.48 1.2.48m3.38-3.06L6.08 8.56l2.28-1.82 1.26 1.54zM11.03 17.5V7.64h2.5v2.68l-.38.04q.06-.86.52-1.52t1.12-1.02a2.8 2.8 0 0 1 1.38-.38q.5 0 .94.14.46.12.94.42l-1.2 2.24a3 3 0 0 0-.56-.22 2.4 2.4 0 0 0-.68-.1 2.2 2.2 0 0 0-.78.14q-.36.14-.66.44a2.3 2.3 0 0 0-.46.8q-.08.28-.14.72-.04.42-.04 1.24v4.24zM23.538 17.7q-1.44 0-2.56-.66a4.86 4.86 0 0 1-1.78-1.82q-.64-1.18-.64-2.66 0-1.5.64-2.64a4.7 4.7 0 0 1 1.76-1.82q1.14-.66 2.58-.66 1.42 0 2.54.66a4.7 4.7 0 0 1 1.76 1.82q.64 1.14.64 2.64 0 1.48-.64 2.64a4.86 4.86 0 0 1-1.76 1.84q-1.12.66-2.54.66m0-2.18q.76 0 1.3-.36.56-.36.84-1.02.3-.66.3-1.58 0-.94-.3-1.58a2.08 2.08 0 0 0-.84-1q-.54-.36-1.3-.36-.78 0-1.34.36-.56.34-.86 1-.3.64-.3 1.58 0 .92.3 1.58t.86 1.02 1.34.36M33.231 17.5l-4.04-9.86h2.72l2.32 6.62 2.36-6.62h2.68l-4 9.86zM44.059 17.7q-1.101 0-1.92-.32a5 5 0 0 1-1.4-.8 6.4 6.4 0 0 1-.9-.92l1.7-1.48q.339.56.96 1.04.64.46 1.58.46.74 0 1.14-.28.42-.3.42-.74a.72.72 0 0 0-.26-.58 1.8 1.8 0 0 0-.7-.38q-.44-.16-.98-.3-.56-.16-1.16-.36a5 5 0 0 1-1.1-.52 2.8 2.8 0 0 1-.82-.86q-.3-.52-.3-1.3 0-1.3 1.02-2.1 1.02-.82 2.7-.82 1.18 0 2.14.48.96.46 1.52 1.34l-1.54 1.22a2.2 2.2 0 0 0-.96-.86q-.58-.3-1.24-.3-.58 0-.96.22-.36.22-.36.6 0 .26.16.44.18.18.56.32.4.12 1.04.28.6.14 1.24.34a5.4 5.4 0 0 1 1.2.54q.56.34.9.9t.34 1.42q0 .98-.5 1.74-.5.74-1.4 1.16t-2.12.42M68.504 13.783c-1-.199-1.942.03-2.673.533-.524.36-1.197.43-1.771.152l-.297-.146c-.676-.327-1.065-1.012-1.062-1.746v-.013l-.003-.053a1.82 1.82 0 0 1 1.027-1.688l1.317-.641a1.76 1.76 0 0 1 1.59.04 2.52 2.52 0 0 0 1.598.24c1.003-.17 1.809-.961 1.983-1.936.256-1.46-.864-2.735-2.302-2.805-.874-.044-1.67.433-2.165 1.138a2.2 2.2 0 0 0-.39.916c-.092.53-.428.986-.919 1.224l-1.892.918a1.72 1.72 0 0 1-1.52-.004 3.1 3.1 0 0 0-1.98-.268c-1.213.224-2.19 1.178-2.415 2.36-.355 1.885 1.131 3.536 3.01 3.536.503 0 .982-.123 1.4-.335a1.7 1.7 0 0 1 1.504.008l.952.464c.55.268.874.82.889 1.418.009.338.075.69.218 1.056.477 1.194 1.606 2.07 2.919 2.165 2.207.166 4.02-1.736 3.604-3.922-.244-1.294-1.3-2.346-2.622-2.61"></path></svg>
